<?xml version="1.0" encoding="UTF-8" standalone="no"?>
<svg width="21px" height="23px" viewBox="0 0 21 23" version="1.1" xmlns="http://www.w3.org/2000/svg" xmlns:xlink="http://www.w3.org/1999/xlink">
    <!-- Generator: Sketch 39.1 (31720) - http://www.bohemiancoding.com/sketch -->
    <title>Clip 14</title>
    <desc>Created with Sketch.</desc>
    <defs></defs>
    <g id="Ant-Motion" stroke="none" stroke-width="1" fill="none" fill-rule="evenodd">
        <g id="动效展示" transform="translate(-240.000000, -18.000000)" fill="#019BF0">
            <g id="导航" transform="translate(240.000000, 18.000000)">
                <g id="logo">
                    <path d="M3.36968659,0.6745868 L10.504894,7.85716906 L17.6222669,0.692539633 C17.973469,0.274021344 18.498657,0.00823857042 19.0855295,0.00823857042 C20.1428297,0.00823857042 21,0.871100094 21,1.93554914 L21,14.6444451 C21,15.7088941 20.1428297,16.5717557 19.0855295,16.5717557 C18.0281013,16.5717557 17.1709311,15.7088941 17.1709311,14.6444451 L17.1709311,6.57879828 L11.9022199,11.882412 C11.5153241,12.2718767 11.0035932,12.4590962 10.4966785,12.4440705 C9.98798532,12.4591219 9.47450247,12.2712334 9.08631806,11.8804047 L3.82922879,6.58848988 L3.82922879,20.7664753 C3.82922879,21.8310531 2.97205853,22.6939146 1.91463038,22.6939146 C0.857202229,22.6939146 3.19696483e-05,21.8310531 3.19696483e-05,20.7664753 L3.19696483e-05,1.94672191 C-1.16323699e-05,1.93910295 -1.06342104e-05,1.93148377 3.49641266e-05,1.92386482 C0.00188242294,0.861000024 0.85834347,0 1.91463038,0 C2.49694927,0 3.01853727,0.261674337 3.36968659,0.6745868 Z M5.10159596,14.1865608 C5.10159596,15.0953781 5.83331732,15.8319578 6.73588448,15.8319578 C7.63857952,15.8319578 8.37030087,15.0953781 8.37030087,14.1865608 C8.37030087,13.2778722 7.63857952,12.5412925 6.73588448,12.5412925 C5.83331732,12.5412925 5.10159596,13.2778722 5.10159596,14.1865608 Z" id="Clip-14"></path>
                </g>
            </g>
        </g>
    </g>
</svg>